<svg id="Layer_1" data-name="Layer 1" xmlns="http://www.w3.org/2000/svg" viewBox="0 0 521.04 521.04"><defs><style>.cls-1{fill:#76cab2;}.cls-2{fill:#fff;}</style></defs><title>fridge</title><rect class="cls-1" width="521.04" height="521.04" rx="117.84"/><path class="cls-2" d="M307.19,299.39c0-49.79.44-99.59-.21-149.38-.26-19.89,14.58-33.7,33.57-33.54,66.45.53,132.9.2,199.36.21,21.16,0,33.3,12.18,33.29,33.38q0,75-.09,149.93,0,74.67.09,149.35c0,15.67-6.2,24.84-20.52,31.09-1.48.65-222.44.83-225.42-.36-13.67-5.46-20.06-15.22-20.06-30.2Q307.16,374.63,307.19,299.39Zm252.83-30H320.43c0,7.76,0,15,0,22.32l-.15,155.92c0,14.93,6,21.16,20.83,21.17q99.38.07,198.75,0c14,0,20.3-6.5,20.29-20.62L560,293.91C560,285.9,560,277.88,560,269.38ZM320.28,255.44H560.13v-7q0-48.87,0-97.73c0-14.63-6.36-20.95-21.14-20.95H340.79c-14,0-20.5,6.52-20.51,20.48q0,49.68,0,99.38Z" transform="translate(-179.57 -38.18)"/><path class="cls-2" d="M339,343.23c0-12.8,0-25.6,0-38.39,0-12.24,6.57-19,18.36-19s18.53,6.8,18.58,18.95q.17,38.4,0,76.8c0,12.06-6.87,18.67-18.8,18.62-11.6-.05-18.1-6.64-18.15-18.57C339,368.83,339,356,339,343.23Zm13.05-.32h0c0,12.61.06,25.23,0,37.85,0,3.85.83,6.37,5.4,6.36s5.26-2.79,5.26-6.5q-.09-37.59,0-75.18c0-3.82-.86-6.48-5.39-6.43s-5.31,2.81-5.29,6.57C352.11,318,352.06,330.47,352.06,342.91Z" transform="translate(-179.57 -38.18)"/><path class="cls-2" d="M376,195.32c0,8.6.11,17.2,0,25.79-.21,11.83-7.28,18.49-19.19,18.33-11.06-.15-17.73-7.07-17.75-18.51q0-25.25,0-50.49c0-12.4,6.42-19,18.2-19.07,12,0,18.67,6.73,18.77,19.25C376.06,178.86,376,187.09,376,195.32Zm-23.9-.07h0c0,8.58,0,17.16,0,25.73,0,3.67,1.74,5.32,5.34,5.37s5.3-1.78,5.29-5.37q0-25.46,0-50.91c0-3.46-1.15-5.53-5-5.58s-5.64,1.66-5.6,5.58C352.16,178.46,352.1,186.86,352.1,195.25Z" transform="translate(-179.57 -38.18)"/><path class="cls-2" d="M549.42,200.94c0,11.88,0,23.77,0,35.65,0,5.93-2.27,9-6.43,9.08-4.37.08-6.78-3.15-6.79-9.34,0-22.67,0-45.35,0-68,0-9.55-2.86-12.35-12.46-12.37-6,0-12.06,0-18.1,0s-9-2.22-9.07-6.4c-.1-4.47,2.88-6.64,9.28-6.67,6.77,0,13.53-.07,20.3,0,13.91.18,22.84,9,23.28,23,0,.37,0,.73,0,1.1Z" transform="translate(-179.57 -38.18)"/></svg>
