<svg id="Layer_1" data-name="Layer 1" xmlns="http://www.w3.org/2000/svg" viewBox="0 0 521.04 521.04"><defs><style>.cls-1{fill:#e4a853;}.cls-2{fill:#fff;}</style></defs><title>shopping-list</title><rect class="cls-1" width="521.04" height="521.04" rx="117.84"/><path class="cls-2" d="M288.51,492.35a12.7,12.7,0,0,1-12.69-12.7q0-52,.06-103.95c0-62.23.09-177.54.17-215.83a12.75,12.75,0,0,1,12.75-12.72H322c0-5.25-.06-10.11,0-15s2.95-8.18,7.06-8.5c4.9-.39,8.47,3,8.58,8.42.1,4.79,0,9.59,0,14.68h30.41c0-4.47,0-8.78,0-13.09,0-6.46,2.73-10,7.72-10,5.15-.06,7.93,3.47,8,10.16,0,4.29,0,8.58,0,13.05h30.38c0-4.61,0-9,0-13.44.05-6.32,2.94-9.84,8-9.77s7.74,3.65,7.73,10c0,4.3,0,8.61,0,13.14h30.36V133c0-5.92,3-9.46,8-9.38,4.77.07,7.67,3.58,7.7,9.33q0,6.48.07,13a3.81,3.81,0,0,0,.29.9h30c0-4.77,0-9.42,0-14.06,0-5.67,3.06-9.16,7.88-9.13s7.75,3.51,7.8,9.22c0,4.32,0,8.64,0,13a6.86,6.86,0,0,0,.33,1.2h35.84a9.88,9.88,0,0,1,9.89,9.88c0,40,0,191.33,0,271.35q0,25.56,0,51.13a12.94,12.94,0,0,1-12.93,13Zm3.25-15.81H552.22V162.74H522c0,4.72.35,9.28-.13,13.76a14.05,14.05,0,0,1-3.11,7.23c-1.87,2.18-4.84,2.39-7.65,1.11a7.78,7.78,0,0,1-4.75-7.43c-.12-4.87,0-9.74,0-14.64H475.92c0,5,.11,9.8,0,14.57s-3.53,8.19-7.84,8.18-7.57-3.41-7.79-8.22c-.09-1.92,0-3.84,0-5.76v-8.71H429.86c0,4.6,0,8.91,0,13.23,0,5.81-3.25,9.57-8.05,9.48-4.61-.09-7.66-3.85-7.66-9.47,0-4.4,0-8.8,0-13.29H383.76c0,5,.09,9.8,0,14.57a7.85,7.85,0,0,1-5.4,7.72,6.5,6.5,0,0,1-7.8-2,12.73,12.73,0,0,1-2.36-6.5c-.35-4.6-.1-9.24-.1-13.76H337.89a7,7,0,0,0-.19,1c0,4.08,0,8.16,0,12.24,0,5.91-3.14,9.59-8,9.5-4.67-.08-7.66-3.72-7.7-9.41,0-4.41,0-8.81,0-13.38H291.76Z" transform="translate(-160.43 -43.18)"/><path class="cls-2" d="M467.72,423.21H415.53c-5.45,0-8.94-2.93-9-7.58s3.5-7.93,8.8-7.93q52.74,0,105.46,0c5.45,0,8.82,3.19,8.78,7.87s-3.43,7.61-8.94,7.61Q494.17,423.23,467.72,423.21Z" transform="translate(-160.43 -43.18)"/><path class="cls-2" d="M468.09,331q26.63,0,53.26,0c3.32,0,6.3,1.11,7.21,4.22a12.13,12.13,0,0,1-.44,7.76c-1.47,3.31-5,3.58-8.41,3.58q-22.31,0-44.62,0H418.22a38.06,38.06,0,0,1-4.66-.18,7.57,7.57,0,0,1-7-8.12c.25-4.23,3.37-7.19,7.87-7.2,17.87,0,35.74,0,53.62,0Z" transform="translate(-160.43 -43.18)"/><path class="cls-2" d="M468.1,269.75q-26.1,0-52.2,0c-5.69,0-9.25-3-9.31-7.74s3.48-7.92,9.11-7.93q52.55,0,105.1,0c6,0,9.76,4.32,8.54,9.69-.85,3.74-4,6-8.69,6Z" transform="translate(-160.43 -43.18)"/><path class="cls-2" d="M338.8,342.71c8.59-8.59,17.17-17.13,25.69-25.74,2.15-2.16,4.5-3.63,7.64-3.14a7.46,7.46,0,0,1,6.12,4.94,7.23,7.23,0,0,1-1.58,8c-2.61,2.82-5.39,5.47-8.1,8.19q-11.7,11.71-23.41,23.42c-4.81,4.8-8.72,4.74-13.56-.11s-9.54-9.47-14.24-14.27c-3.74-3.81-3.94-8.55-.63-11.78s7.84-2.86,11.53.7c3.28,3.16,6.51,6.38,9.76,9.57C338.09,342.55,338.24,342.55,338.8,342.71Z" transform="translate(-160.43 -43.18)"/><path class="cls-2" d="M338.08,266.46c1.39-1.32,2.35-2.19,3.26-3.11,7.89-7.87,15.73-15.78,23.65-23.61,3.77-3.73,8.11-3.87,11.47-.58s3.16,7.84-.44,11.46q-15.82,15.94-31.77,31.77c-3.73,3.7-7.93,3.63-11.72-.09q-7.81-7.67-15.49-15.5c-3.39-3.45-3.51-8.11-.47-11.23s7.89-3.16,11.47.39C331.42,259.32,334.63,262.84,338.08,266.46Z" transform="translate(-160.43 -43.18)"/><path class="cls-2" d="M338.36,420c8.27-8.26,16.23-16.22,24.2-24.17,1.1-1.11,2.15-2.28,3.33-3.29a7.82,7.82,0,0,1,10.47.17,7.52,7.52,0,0,1,.46,10.67c-1.81,2.08-3.85,4-5.8,5.91Q358.18,422.15,345.31,435c-4.95,4.94-8.78,4.93-13.84-.07q-7-7-14-14c-3.8-3.84-4.09-8.48-.82-11.78s7.84-3.15,11.72.73C331.61,413.1,334.79,416.37,338.36,420Z" transform="translate(-160.43 -43.18)"/></svg>
