<svg id="Lag_1" data-name="Lag 1" xmlns="http://www.w3.org/2000/svg" viewBox="0 0 521.04 521.04"><defs><style>.cls-1{fill:#9ac25e;}.cls-2{fill:#fff;}</style></defs><title>Gift</title><rect class="cls-1" width="521.04" height="521.04" rx="117.84"/><path class="cls-2" d="M272.41,290.71c-4.92,0-9.46,0-14,0-8.17-.09-12.84-4.74-12.84-12.85q0-27.53,0-55.06c0-15,10.11-25,25.12-25q44.19,0,88.37,0h2.47c-5.62-6.34-11.67-12.44-16.87-19.19-6.52-8.5-11.31-18-12.17-29C331.1,132,345.11,122.28,360,123.2c13.77.86,25.51,6.88,36.7,14.31,9.43,6.27,17.43,14.08,24.72,22.68.74.87,1.49,1.74,1.11,1.18,6.19-5.48,12.25-11.13,18.6-16.42,12-9.94,24.95-18.11,40.55-21.07,7-1.32,14-1.2,20.53,2.09,11.22,5.62,15.65,17.4,11.57,31.23-3.94,13.34-12.12,24.05-21.59,33.92-2.07,2.15-3.83,4.59-5.55,6.68h3.27q41.55,0,83.11,0c14.28,0,24.44,10.22,24.5,24.56q.09,27.88,0,55.76c0,7.7-4.7,12.45-12.41,12.56-4.75.07-9.51,0-14.62,0v23.17q0,57,0,114c0,21.41-12.82,38.79-32.84,44.39A47.44,47.44,0,0,1,525.21,474q-103.46.17-206.91.06c-22.71,0-41.46-15.36-45-37.76-1.41-8.91-.7-18.18-.71-27.29q-.08-57.51,0-115C272.6,293.06,272.49,292.15,272.41,290.71Zm23,.2c-.07,1.1-.18,2-.18,2.91q0,67.68,0,135.36a20,20,0,0,0,.37,4.17C298,444.23,306.42,451.16,318,451.3c15.89.2,31.79.06,47.69.05a19.12,19.12,0,0,0,2.32-.27V290.91Zm179.53,0V451.07a20.54,20.54,0,0,0,2.47.28c15.77,0,31.55,0,47.33,0a26.42,26.42,0,0,0,6.57-.78,21.88,21.88,0,0,0,16.48-21.35q.08-67.67,0-135.32c0-.92-.11-1.84-.18-2.93Zm-83.75,0V451.07H452V291Zm-23.08-70.41a9.13,9.13,0,0,0-1.3-.24q-47.67,0-95.33-.07c-2.84,0-3.26,1.34-3.25,3.67.06,11.8,0,23.6.05,35.4v8.51h99.83ZM475,267.74h99.85c0-14.5-.1-28.74.07-43,0-3.53-1-4.59-4.57-4.57-30.13.13-60.26.07-90.39.07h-5Zm-83.78-47.36v47.36h60.65V220.38Zm41.28-26.85c2.5,4.08,3.38,4.47,8.47,3.33a30.47,30.47,0,0,0,3.36-.94c16.79-5.79,30-16.42,40.25-30.67a64.56,64.56,0,0,0,7.61-14.83c1.82-4.78.66-5.86-4.46-5.39-8.49.77-15.93,4.44-22.79,9.16C450.45,164.14,437.89,175.79,432.46,193.53Zm-16.77.09c-1-1.9-1.82-3.54-2.62-5.21-9.23-19.16-24.07-32.4-43.4-40.73A43.79,43.79,0,0,0,358.89,145c-3.77-.56-4.74.6-3.91,4.35a30.22,30.22,0,0,0,2.49,6.87c5.51,11.15,14.17,19.63,23.77,27.19,7.73,6.09,16.12,11.1,25.87,13.38C412.21,198,413,197.66,415.69,193.62Z" transform="translate(-160.43 -43.18)"/></svg>