<svg id="Lag_1" data-name="Lag 1" xmlns="http://www.w3.org/2000/svg" viewBox="0 0 521.04 521.04"><defs><style>.cls-1{fill:#29235c;}.cls-2{fill:#fff;}</style></defs><title>Kummefyser2</title><rect class="cls-1" width="521.04" height="521.04" rx="117.84"/><path class="cls-2" d="M138.46,318.77c-17.47-4.67-33.75-9.08-50.07-13.35-5.22-1.37-9.23-3.91-10.35-9.49-1.77-8.73,5.82-15.8,14.63-13.48,23.62,6.23,47.19,12.67,70.83,18.85a9.26,9.26,0,0,0,6.33-.53c22.17-12.61,44.23-25.42,66.31-38.19.62-.36,1.18-.82,2.17-1.51-1.39-.92-2.43-1.69-3.54-2.33-21.3-12.32-42.56-24.69-64-36.81a11.11,11.11,0,0,0-7.51-1c-23.22,6-46.36,12.27-69.53,18.45-7.45,2-13.84-1.15-15.59-7.57C76.31,225,80.12,219,87.8,217c15.14-4.1,30.31-8.1,45.46-12.15,1.4-.38,2.78-.82,4.92-1.45-1.78-1.17-3-2-4.19-2.74q-21.34-12.39-42.71-24.73c-7.75-4.48-10.23-10.86-6.69-17.14s10.46-7.48,18.51-2.84q20.79,12,41.56,24c1.42.82,2.88,1.56,5.13,2.77-.36-2-.51-3.19-.82-4.38q-6.1-23-12.23-45.91c-2.13-8,.69-14.24,7.25-16.15,7-2,12.89,1.89,15.16,10.32,6.2,23,12.3,46,18.6,69,.54,2,1.82,4.34,3.46,5.31,22.14,13,44.4,25.74,66.63,38.55.5.29,1,.52,2.11,1,.15-1.56.36-2.79.36-4,0-24.92.07-49.85-.09-74.78a9.26,9.26,0,0,0-2.42-5.82c-17.08-17.32-34.32-34.48-51.52-51.69-3.46-3.46-5-7.48-3.47-12.34a11.15,11.15,0,0,1,9-8c4.61-.91,8.16,1,11.33,4.23q16.74,16.9,33.61,33.69c.91.91,1.89,1.74,3.56,3.27v-5.26q0-25.15,0-50.31c0-8.18,4.51-13.29,11.57-13.33s11.73,5.06,11.75,13.15q.06,25.15,0,50.31V125c1.68-1.51,2.77-2.4,3.77-3.4,11.32-11.33,22.57-22.72,34-34,5.94-5.87,14.51-5,18.59,1.73,3,4.94,2.11,10.31-2.7,15.14-15.56,15.63-31,31.41-46.86,46.72-4.92,4.75-7.1,9.43-6.95,16.42.49,22.51.18,45,.18,67.54v5.43c1.82-.91,3-1.44,4.13-2.08,21.45-12.36,42.92-24.68,64.27-37.2a9.88,9.88,0,0,0,4.08-5.37c6.49-23.55,12.77-47.16,19.06-70.77,1.34-5,4.31-8.31,9.48-9.13,8.85-1.41,15.25,6.11,12.88,15.18-4.09,15.62-8.31,31.19-12.47,46.79-.33,1.26-.57,2.56-1.07,4.79,2.18-1.17,3.59-1.87,5-2.66l43.92-25.34c4.47-2.58,8.95-2.67,13.19.35,3.94,2.81,5.9,7.06,4.3,11.49a17.38,17.38,0,0,1-6.66,8.44c-14.16,8.66-28.65,16.78-43,25.1-1.42.82-2.81,1.69-5.09,3.06,3.44,1,6.05,1.8,8.69,2.51,14.42,3.89,28.86,7.68,43.25,11.66,5.78,1.61,8.84,6.08,8.58,11.77a11,11,0,0,1-8.93,10.58,17.85,17.85,0,0,1-7.53-.56c-23.05-6.07-46-12.32-69.1-18.35a9.36,9.36,0,0,0-6.33.45c-22.31,12.68-44.49,25.58-66.7,38.43-.5.29-.94.69-1.82,1.34,1.43,1,2.57,1.81,3.81,2.53,21,12.17,42.1,24.28,63.08,36.52a10.1,10.1,0,0,0,8.5,1.18q34.91-9.56,69.92-18.75c8.52-2.24,15.84,4,15,12.41-.55,5.23-4,8.68-10.44,10.42L387.94,318.1c-.44.12-.86.27-2.2.67,1.63,1.09,2.72,1.9,3.89,2.58q22.14,12.81,44.3,25.59c7,4,9.26,10.61,5.79,16.65s-10.31,7.47-17.31,3.45q-21.8-12.51-43.53-25.12c-1.29-.74-2.62-1.39-4.57-2.42a38,38,0,0,0,.56,3.86c4.1,15.46,8.25,30.9,12.35,46.35,2.08,7.85-.93,13.83-7.83,15.76-6.68,1.87-12.44-2-14.58-9.9-6.19-23-12.27-46.06-18.58-69a9.9,9.9,0,0,0-3.85-5.53c-21.59-12.69-43.32-25.16-65-37.67-1-.57-2.07-1-3.47-1.62-.09,1.76-.2,3.08-.21,4.39,0,24.63-.07,49.25.12,73.88a10.4,10.4,0,0,0,2.73,6.6c17,17.23,34.09,34.28,51.19,51.36,3.47,3.47,5,7.48,3.52,12.34a11.11,11.11,0,0,1-9.44,8.07c-4.4.71-7.84-1.25-10.88-4.32q-16.44-16.57-33-33c-1.12-1.13-2.33-2.17-4.23-3.92v5.23q0,25.15,0,50.31c0,8.1-4.56,13.34-11.56,13.37s-11.74-5.12-11.77-13.16c0-16.16,0-32.33,0-48.5v-7.1c-1.53,1.32-2.55,2.08-3.44,3q-16.66,16.67-33.3,33.36c-6.11,6.11-12.8,6.7-17.92,1.66s-4.57-12,1.39-17.94c16.86-16.9,33.77-33.75,50.56-50.72a8.65,8.65,0,0,0,2.6-5.3c.16-25.68.11-51.37.09-77.05a24.21,24.21,0,0,0-.3-2.54c-1.67.85-3,1.45-4.26,2.18-21.18,12.21-42.32,24.49-63.56,36.6a9,9,0,0,0-4.6,6.17q-9.24,35-18.76,69.92c-2,7.21-7.88,10.71-14.38,8.86s-9.75-7.86-7.87-15c4.12-15.61,8.3-31.19,12.44-46.79.3-1.12.45-2.28.81-4.17-2.06,1.07-3.51,1.74-4.88,2.54-14.77,8.53-29.5,17.13-44.3,25.6-5.7,3.26-11.74,2.1-15.45-2.64a11.26,11.26,0,0,1,.36-14.57,19.22,19.22,0,0,1,4.67-3.5q21.52-12.53,43.11-25C134.73,321.11,136.09,320.23,138.46,318.77Z" transform="translate(0 0)"/></svg>