<svg id="Layer_1" data-name="Layer 1" xmlns="http://www.w3.org/2000/svg" viewBox="0 0 521.04 521.04"><defs><style>.cls-1{fill:#e76884;}.cls-2{fill:#fff;}</style></defs><title>meal-plan</title><rect class="cls-1" width="521.04" height="521.04" rx="117.84"/><path class="cls-2" d="M420.07,465.61H358.31l-88.64,0c-10.49,0-15.41-4.9-15.42-15.27q0-146.71,0-293.43c0-10,4.92-15,14.81-15h26.87c0,5.72-.08,11.22,0,16.7.08,3.63-.12,7.39.76,10.84,2.15,8.45,9.33,13.23,18.94,13.24h120.6c13.56,0,20.68-7.13,20.7-20.66V142c10.57,0,20.67-.39,30.73.14,6.66.35,11,6.38,11,13.74q0,53.42,0,106.85v46.53c-7.76,0-15.15-.43-22.47.07a82.39,82.39,0,0,0-72.32,56.49c-6,18.08-4.55,36.13-.35,54.21,3.45,14.85,8.24,29.24,15.36,42.79C419.28,463.52,419.52,464.27,420.07,465.61ZM377.09,280v0H339c-11.6,0-23.21-.07-34.81,0-5.75.06-9.18,5.21-6.07,9.37a9.12,9.12,0,0,0,6.47,2.95c32,.19,63.95.14,95.92.14q24.09,0,48.17,0c3,0,5.69-.44,7.06-3.56,2.19-5-.89-8.92-7-8.92Q412.91,280,377.09,280Zm-.18-55.58h-6.47q-33.15,0-66.31,0c-4.34,0-6.92,2.35-7,6.11s2.37,6.15,6.74,6.33c1.34,0,2.69,0,4,0H430.44c6.6,0,13.21.11,19.81-.06,4.79-.13,7.26-4,5.72-8.38-1.19-3.43-3.9-4-7.09-4Q412.9,224.44,376.91,224.42Zm-36.67,111v0c-12,0-24,0-36,0-4.59,0-7.2,2.44-7.14,6.39s2.41,6.09,7,6.11q35.76.09,71.52,0c4.9,0,7.53-2.62,7.36-6.65-.16-3.85-2.68-5.81-7.6-5.82Q357.81,335.35,340.24,335.37Zm-.17,67.31v0c11.86,0,23.71,0,35.56,0,4.63,0,7.34-2.34,7.37-6.15,0-4.08-2.32-6.17-7.19-6.17q-35.55,0-71.11,0c-5.05,0-7.62,2.2-7.54,6.26s2.6,6.06,7.76,6.06Z" transform="translate(-162.43 -36.45)"/><path class="cls-2" d="M511.23,327.88c2.68-15.89,9.17-29.18,21.19-39.41a63.41,63.41,0,0,1,6.5-4.81c3.53-2.31,7.07-1.69,9.22,1.44,2.39,3.49,1.94,7-1.74,9.46-8.31,5.52-14.71,12.61-18.62,21.81-1.4,3.29-2.37,6.75-3.53,10.13,7.12-1.46,13.68-3.47,20.36-4.07,27.48-2.5,49.23,8.11,65.14,30.34,12.19,17,14.17,36.26,10.3,56.38-4.52,23.55-12.85,45.62-27.1,65a98.1,98.1,0,0,1-16.35,17.23c-13.9,11.5-29.79,10.9-45.93,5.71-4.71-1.52-9.12-5.45-13.69-5.47-4.39,0-8.67,4-13.23,5.51-22.81,7.75-43.54,1.08-59.86-19.1-15-18.53-23.38-40.08-28.5-63.07-2.74-12.3-4.11-24.65-1.72-37.26,5.5-28.95,31.15-52.37,60.47-55.45A72.23,72.23,0,0,1,508.57,327C509.3,327.28,510.07,327.5,511.23,327.88ZM487.57,467.51c2.16-.73,6.16-1.81,9.93-3.42,4.47-1.91,6-5,4.58-8.07-1.74-3.9-5.37-5.08-9.78-3-5.4,2.55-10.55,2-14.44-2.31a54.16,54.16,0,0,1-9.09-13.16c-3-6.4-4.9-13.33-7.28-20a6.66,6.66,0,0,0-7.69-4.32,6.4,6.4,0,0,0-4.24,7.38c3.48,13.37,8.06,26.25,17.28,36.93C471.78,463.23,477.79,467,487.57,467.51Zm88.93-72.6-.75.14c0,1.61,0,3.23,0,4.85-.11,4.68,2,7.36,6,7.43s6.78-2.72,6.76-7c0-5.51.1-11.13-.87-16.51-2.42-13.32-8.4-24.15-22.51-28.36-4.18-1.25-7,.08-8.31,3.85-1.17,3.43.37,6.39,4.37,7.7a17.64,17.64,0,0,1,12,12.19C574.71,384.31,575.42,389.67,576.5,394.91Z" transform="translate(-162.43 -36.45)"/><path class="cls-2" d="M408.41,123.36c9.51,0,18.8,0,28.09,0,6.07,0,7.95,1.9,8,8q0,15.76,0,31.55c0,5.32-2,7.3-7.31,7.3q-60.87,0-121.75,0c-4.76,0-7.6-2.65-7.64-7.41q-.15-16.38,0-32.76c0-4.48,2.48-6.64,7.29-6.66,8.63,0,17.26-.07,25.89,0,2.23,0,3.3-.57,4-2.83,4.51-14.78,16.67-24,31.28-24s26.82,9.4,31.27,24C407.7,121.43,408,122.18,408.41,123.36Z" transform="translate(-162.43 -36.45)"/></svg>
