<svg id="Layer_1" data-name="Layer 1" xmlns="http://www.w3.org/2000/svg" viewBox="0 0 521.04 521.04"><defs><style>.cls-1{fill:#9374b2;}.cls-2{fill:#fff;}</style></defs><title>offers</title><rect class="cls-1" width="521.04" height="521.04" rx="117.84"/><path class="cls-2" d="M360,327.59c-2-6.7-4-13.37-6-20q-21-68.44-41.83-136.91c-1.3-4.29-3.27-5.74-7.69-5.59-9.49.33-19,.17-28.5,0-7-.09-11.46-4-11.39-9.86s4.7-9.8,11.59-9.86c13-.11,26-.06,39,0,7.41,0,10.5,2.36,12.68,9.49,4.73,15.42,9.67,30.78,14,46.31,1.49,5.34,3.63,7.22,9.46,7.2,79.49-.23,159,0,238.49-.31,10.5,0,15.42,6,12.18,16.32-11.66,37.29-23,74.7-34.41,112-3.19,10.41-4.78,11.56-15.51,11.56q-96.5,0-193,0a40,40,0,0,0-8.42.62,9.2,9.2,0,0,0-7.25,10,9.42,9.42,0,0,0,8.89,8.6c3.49.21,7,.08,10.49.08q93.75,0,187.5,0c19.29,0,34.53,7.26,45.41,23.35,2.7,4,5.66,7.84,8.33,11.86,3.4,5.13,2.49,11-2,14.15s-10.15,2.27-14-2.78c-3-4-6-8-8.7-12.2C572.55,391.44,563,387,550.92,387q-81.49.12-163,0c-12.17,0-24.34.18-36.49-.17-14.62-.41-26-11.46-27.82-26.47-1.61-13.06,7.49-26.87,20.69-30.58C349.19,328.46,354.42,328.35,360,327.59ZM351,228.13a18.37,18.37,0,0,0,.29,3.05c9.57,31.32,19.12,62.64,28.91,93.9.44,1.4,3,3.06,4.54,3.06,53.66.16,107.32.11,161,.19,2.84,0,4.05-1,4.87-3.67,9.4-31,18.94-62,28.4-93a17.32,17.32,0,0,0,.29-3.51Z" transform="translate(-174.43 -43.45)"/><path class="cls-2" d="M437.16,434.06a38.46,38.46,0,1,1-38.52-38.83A38.62,38.62,0,0,1,437.16,434.06Zm-19.71-.1a18.75,18.75,0,1,0-37.5,0,18.75,18.75,0,0,0,37.5,0Z" transform="translate(-174.43 -43.45)"/><path class="cls-2" d="M535.36,395.24c21,0,38.43,17.56,38.46,38.65,0,20.93-17.55,38.59-38.52,38.71a38.68,38.68,0,1,1,.06-77.36Zm-.1,57.37a18.72,18.72,0,0,0,18.62-18.84,19.05,19.05,0,0,0-18.76-18.83c-10.21-.07-19.25,9.09-19,19.22A19,19,0,0,0,535.26,452.61Z" transform="translate(-174.43 -43.45)"/></svg>
